<svg id="Camada_1" data-name="Camada 1" xmlns="http://www.w3.org/2000/svg" viewBox="0 0 49.51 51.56"><defs><style>.cls-1{font-size:23.81px;font-family:MyriadPro-Regular, Myriad Pro;}.cls-1,.cls-3{fill:#fff;}.cls-2{fill:none;stroke:#fff;stroke-miterlimit:10;stroke-width:1.5px;}</style></defs><text class="cls-1" transform="translate(8.89 24.67)">€</text><path class="cls-2" d="M52.56,36c0-.12,0-.24,0-.37A15.65,15.65,0,1,0,36.92,51.32l.36,0A15.64,15.64,0,0,1,52.56,36Z" transform="translate(-20.42 -18.43)"/><text class="cls-1" transform="translate(26.71 41.24)">$</text><circle class="cls-2" cx="32.39" cy="33.03" r="15.5"/><path class="cls-2" d="M21.17,54.1v6.79a2.91,2.91,0,0,0,2.78,3H27.3" transform="translate(-20.42 -18.43)"/><path class="cls-2" d="M23.85,64.24" transform="translate(-20.42 -18.43)"/><polygon class="cls-3" points="6.78 39.69 6.78 51.56 14.06 45.72 6.78 39.69"/><path class="cls-2" d="M69.18,34.32V27.53a2.91,2.91,0,0,0-2.78-3H63.05" transform="translate(-20.42 -18.43)"/><polygon class="cls-3" points="42.73 11.87 42.73 0 35.45 5.84 42.73 11.87"/></svg>